<?xml version="1.0" encoding="utf-8"?>
<!-- Generator: Adobe Illustrator 24.1.1, SVG Export Plug-In . SVG Version: 6.00 Build 0)  -->
<svg version="1.1" id="Layer_1" xmlns="http://www.w3.org/2000/svg" xmlns:xlink="http://www.w3.org/1999/xlink" x="0px" y="0px"
	 viewBox="0 0 512 512" style="enable-background:new 0 0 512 512;" xml:space="preserve">
<style type="text/css">
	.st0{fill-rule:evenodd;clip-rule:evenodd;}
</style>
<g>
	<path class="st0" d="M128,256h21.3v-21.3H128V256z M85.3,256h21.3v-21.3H85.3V256z M64,245.3c0,17.7-14.3,32-32,32S0,263,0,245.3
		s14.3-32,32-32S64,227.7,64,245.3z M277.3,320c-35.4,0-64-28.6-64-64s28.6-64,64-64s64,28.6,64,64S312.7,320,277.3,320z M480,213.3
		c-13.9,0-25.6,9-30,21.3h-90.3c-3.3-12.9-9.6-24.6-18.1-34.3l48.5-72.8l4.6,0.4c17.7,0,32-14.3,32-32s-14.3-32-32-32
		c-17.7,0-32,14.3-32,32c0,8.3,3.2,15.8,8.4,21.5l-45.5,68.2c-13.7-9.4-30.4-15-48.3-15c-39.7,0-72.8,27.2-82.3,64h-24.4V256H192
		c0,47.1,38.2,85.3,85.3,85.3c17.9,0,34.6-5.6,48.3-15l45.5,68.2c-5.2,5.7-8.4,13.2-8.4,21.5c0,17.7,14.3,32,32,32
		c17.7,0,32-14.3,32-32s-14.3-32-32-32l-4.6,0.4l-48.5-72.8c13-15,21.2-34.3,21.2-55.7H450c4.4,12.4,16.1,21.3,30,21.3
		c17.7,0,32-14.3,32-32S497.7,213.3,480,213.3z"/>
</g>
</svg>
